<svg xmlns="http://www.w3.org/2000/svg" xmlns:xlink="http://www.w3.org/1999/xlink" viewBox="0 0 584.89 202.98"><defs><style>.cls-1{fill:#12114a;}.cls-2,.cls-5{fill:none;stroke-miterlimit:10;}.cls-2{stroke:#fff;}.cls-3{fill:aqua;}.cls-4{fill:url(#New_Gradient_Swatch_3);}.cls-5{stroke:#b3b3b3;stroke-linecap:round;}.cls-6{fill:#fbb4ec;}</style><linearGradient id="New_Gradient_Swatch_3" x1="68.47" y1="102.53" x2="286.56" y2="102.53" gradientTransform="translate(-2)" gradientUnits="userSpaceOnUse"><stop offset="0.04" stop-color="#7ed5f0"/><stop offset="0.07" stop-color="#7cd5f1" stop-opacity="0.98"/><stop offset="0.49" stop-color="#64daf8" stop-opacity="0.77"/><stop offset="0.81" stop-color="#55ddfd" stop-opacity="0.65"/><stop offset="1" stop-color="#50deff" stop-opacity="0.6"/></linearGradient></defs><g id="Layer_2" data-name="Layer 2"><g id="Layer_1-2" data-name="Layer 1"><rect class="cls-1" x="0.5" y="0.5" width="583.89" height="201.98" rx="35"/><rect class="cls-2" x="0.5" y="0.5" width="583.89" height="201.98" rx="35"/><path class="cls-3" d="M91.46,145.06c-13.93.22-25.15-11.32-24.85-24.2,1.06-9-2.56-41.36,3.36-48.95C82,50.82,117,60.08,116.18,83.84c-.18.41.53,6.19-.51,5.93h-14.2c-1,.25-.28-5.55-.5-5.93.14-12.52-19.37-12.71-18.89,0,1.06,5.47-2.66,40.51,2.72,44.14,6,6.35,16.64.64,16.17-7.12.2-.48-.54-6.13.5-5.94H115.8C119.62,128.73,107.9,145.6,91.46,145.06Z"/><path class="cls-3" d="M149,145.06c-34-1.16-23.42-41-24.85-61.46C123.87,71,135.55,59.82,149,60c13.54-.2,24.94,11,24.72,23.61C172.34,103.83,182.77,144.14,149,145.06Zm0-14.35c5.05.15,9.67-4.88,9.51-9.5l-.13-37.61A9.2,9.2,0,0,0,149,74.23a9.31,9.31,0,0,0-9.51,9.37v37.61A9.53,9.53,0,0,0,149,130.71Z"/><path class="cls-3" d="M206.94,145.06c-34-1.16-23.41-41-24.84-61.46C181.8,71,193.48,59.82,206.94,60c13.54-.2,24.94,11,24.72,23.61C230.27,103.83,240.7,144.14,206.94,145.06Zm0-14.35c5.05.15,9.67-4.88,9.51-9.5l-.13-37.61a9.2,9.2,0,0,0-9.38-9.37,9.31,9.31,0,0,0-9.51,9.37v37.61A9.53,9.53,0,0,0,206.94,130.71Z"/><path class="cls-3" d="M243,143.88c-.85-.56-1.06-82.19.25-82.59h14.08c1.83-.2-.11,67.4.5,68h26.12c.42,0,.63.2.63.59v13.41C284.72,145,243.64,143.31,243,143.88Z"/><path class="cls-4" d="M91.46,145.06c-13.93.22-25.15-11.32-24.85-24.2,1.06-9-2.56-41.36,3.36-48.95C82,50.82,117,60.08,116.18,83.84c-.18.41.53,6.19-.51,5.93h-14.2c-1,.25-.28-5.55-.5-5.93.14-12.52-19.37-12.71-18.89,0,1.06,5.47-2.66,40.51,2.72,44.14,6,6.35,16.64.64,16.17-7.12.2-.48-.54-6.13.5-5.94H115.8C119.62,128.73,107.9,145.6,91.46,145.06Z"/><path class="cls-4" d="M149,145.06c-34-1.16-23.42-41-24.85-61.46C123.87,71,135.55,59.82,149,60c13.54-.2,24.94,11,24.72,23.61C172.34,103.83,182.77,144.14,149,145.06Zm0-14.35c5.05.15,9.67-4.88,9.51-9.5l-.13-37.61A9.2,9.2,0,0,0,149,74.23a9.31,9.31,0,0,0-9.51,9.37v37.61A9.53,9.53,0,0,0,149,130.71Z"/><path class="cls-4" d="M206.94,145.06c-34-1.16-23.41-41-24.84-61.46C181.8,71,193.48,59.82,206.94,60c13.54-.2,24.94,11,24.72,23.61C230.27,103.83,240.7,144.14,206.94,145.06Zm0-14.35c5.05.15,9.67-4.88,9.51-9.5l-.13-37.61a9.2,9.2,0,0,0-9.38-9.37,9.31,9.31,0,0,0-9.51,9.37v37.61A9.53,9.53,0,0,0,206.94,130.71Z"/><path class="cls-4" d="M243,143.88c-.85-.56-1.06-82.19.25-82.59h14.08c1.83-.2-.11,67.4.5,68h26.12c.42,0,.63.2.63.59v13.41C284.72,145,243.64,143.31,243,143.88Z"/><rect class="cls-5" x="12.09" y="10.79" width="562.76" height="182.21" rx="35"/><path class="cls-6" d="M321.21,145.4c-.33,0-.5-.21-.5-.63L320.84,58c0-.34.21-.51.62-.51h13.88c.42,0,.62.17.62.51l-.12,34.33h18.75V58a.45.45,0,0,1,.5-.51H369q.63,0,.63.51l.25,86.73a.56.56,0,0,1-.63.63h-14a.55.55,0,0,1-.62-.63V107.65H335.84v37.12c0,.42-.17.63-.5.63Z"/><path class="cls-6" d="M380.59,145.4c-.34,0-.5-.21-.5-.63L380.21,58a.45.45,0,0,1,.5-.51h40.13c.33,0,.5.21.5.63V72.3a.45.45,0,0,1-.5.51H395.21V92.5h25.63a.45.45,0,0,1,.5.51l.12,14.26a.44.44,0,0,1-.5.51H395.21v22.09H421c.34,0,.5.21.5.63v14.39a.44.44,0,0,1-.5.51Z"/><path class="cls-6" d="M427.09,144.77,442.59,58a.59.59,0,0,1,.62-.51h18.13A.59.59,0,0,1,462,58l14.88,86.73c.08.42-.09.63-.5.63H462.46c-.33,0-.54-.21-.62-.63l-1.38-9.22h-17l-1.37,9.22c-.09.42-.29.63-.63.63H427.59C427.25,145.4,427.09,145.19,427.09,144.77ZM446,122h12l-5.12-35.47-.75-4.67-.5,4.67Z"/><path class="cls-6" d="M491.21,145.4c-.33,0-.5-.21-.5-.63v-72H474.46a.55.55,0,0,1-.62-.63L474,58a.45.45,0,0,1,.5-.51H522q.63,0,.63.51V72.18c0,.42-.17.63-.5.63H505.71l.13,72c0,.42-.17.63-.5.63Z"/></g></g></svg>